<svg width="80" height="80" viewBox="0 0 80 80" fill="none" xmlns="http://www.w3.org/2000/svg">
<g clip-path="url(#clip0_522_10947)">
<g filter="url(#filter0_d_522_10947)">
<path d="M21.5 36.4109V60.5C21.5 61.6046 22.3954 62.5 23.5 62.5H57.5C58.6046 62.5 59.5 61.6046 59.5 60.5V36.4109C59.5 35.882 59.2905 35.3747 58.9174 34.9999L41.9174 17.9237C41.1356 17.1385 39.8644 17.1385 39.0826 17.9237L22.0826 34.9999C21.7095 35.3747 21.5 35.882 21.5 36.4109Z" fill="#FFF381" fill-opacity="0.4" shape-rendering="crispEdges"/>
<path d="M21.5 36.4109V60.5C21.5 61.6046 22.3954 62.5 23.5 62.5H57.5C58.6046 62.5 59.5 61.6046 59.5 60.5V36.4109C59.5 35.882 59.2905 35.3747 58.9174 34.9999L41.9174 17.9237C41.1356 17.1385 39.8644 17.1385 39.0826 17.9237L22.0826 34.9999C21.7095 35.3747 21.5 35.882 21.5 36.4109Z" stroke="#FFF381" stroke-width="4" shape-rendering="crispEdges"/>
</g>
<path d="M33.5 62.5C33.5 59.8333 33.5 53.3 33.5 48.5C33.5 43.7 38.1667 42.5 40.5 42.5C42.8333 42.5 47.5 43.7 47.5 48.5C47.5 53.3 47.5 59.8333 47.5 62.5" stroke="#FFF381" stroke-width="4"/>
</g>
<defs>
<filter id="filter0_d_522_10947" x="-0.5" y="-4.66528" width="82" height="89.1653" filterUnits="userSpaceOnUse" color-interpolation-filters="sRGB">
<feFlood flood-opacity="0" result="BackgroundImageFix"/>
<feColorMatrix in="SourceAlpha" type="matrix" values="0 0 0 0 0 0 0 0 0 0 0 0 0 0 0 0 0 0 127 0" result="hardAlpha"/>
<feOffset/>
<feGaussianBlur stdDeviation="10"/>
<feComposite in2="hardAlpha" operator="out"/>
<feColorMatrix type="matrix" values="0 0 0 0 0.826103 0 0 0 0 0.898556 0 0 0 0 0.381034 0 0 0 0.4 0"/>
<feBlend mode="normal" in2="BackgroundImageFix" result="effect1_dropShadow_522_10947"/>
<feBlend mode="normal" in="SourceGraphic" in2="effect1_dropShadow_522_10947" result="shape"/>
</filter>
<clipPath id="clip0_522_10947">
<rect width="80" height="80" fill="white"/>
</clipPath>
</defs>
</svg>
