<svg width="80" height="80" viewBox="0 0 80 80" fill="none" xmlns="http://www.w3.org/2000/svg">
<g clip-path="url(#clip0_522_10946)">
<g filter="url(#filter0_d_522_10946)">
<path d="M25.3422 20.1802C24.5181 20.1802 24.4667 20.2308 24.5113 21.1802C25.0718 33.6205 31.5676 44.1801 39.5 44.1801C47.4323 44.1801 53.9282 33.6205 54.4887 21.1802C54.5332 20.2308 54.4822 20.1802 53.6582 20.1802H25.3422Z" fill="#FFF381" fill-opacity="0.4" stroke="#FFF381" stroke-width="4" stroke-miterlimit="10"/>
<path d="M27.2695 59.459H51.9483" stroke="#FFF381" stroke-width="4" stroke-miterlimit="10"/>
</g>
<path d="M35.4883 42.9453C35.4883 45.0993 35.4883 48.9763 35.4883 52.997C35.4883 55.3305 35.2293 58.0827 31.3438 59.4589H47.8573C43.9718 57.3947 43.7775 56.0185 43.7775 52.997C43.7775 51.2739 43.7775 46.0566 43.7775 42.9453" stroke="#FFF381" stroke-width="4"/>
<path d="M26.5 22.1802H22.5224C20.3133 22.1802 18.4113 23.974 18.5492 26.1788C18.7884 30.0048 20.0919 34.1802 26.3791 34.1802" stroke="#FFF381" stroke-width="4"/>
<path d="M52.5 22.1802H58.4776C59.5821 22.1802 60.4943 23.0742 60.4995 24.1787C60.519 28.3717 60.0365 34.1802 52.6209 34.1802" stroke="#FFF381" stroke-width="4"/>
</g>
<defs>
<filter id="filter0_d_522_10946" x="2.50002" y="-1.81981" width="74" height="83.2788" filterUnits="userSpaceOnUse" color-interpolation-filters="sRGB">
<feFlood flood-opacity="0" result="BackgroundImageFix"/>
<feColorMatrix in="SourceAlpha" type="matrix" values="0 0 0 0 0 0 0 0 0 0 0 0 0 0 0 0 0 0 127 0" result="hardAlpha"/>
<feOffset/>
<feGaussianBlur stdDeviation="9.99999"/>
<feComposite in2="hardAlpha" operator="out"/>
<feColorMatrix type="matrix" values="0 0 0 0 0.826103 0 0 0 0 0.898556 0 0 0 0 0.381034 0 0 0 0.4 0"/>
<feBlend mode="normal" in2="BackgroundImageFix" result="effect1_dropShadow_522_10946"/>
<feBlend mode="normal" in="SourceGraphic" in2="effect1_dropShadow_522_10946" result="shape"/>
</filter>
<clipPath id="clip0_522_10946">
<rect width="80" height="80" fill="white"/>
</clipPath>
</defs>
</svg>
